<svg width="1280" height="720" viewBox="0 0 1280 720" fill="none" xmlns="http://www.w3.org/2000/svg">
<g clip-path="url(#clip0_1_2)">
<rect width="1280" height="720" fill="#2148C0"/>
<circle cy="720" r="362" fill="#264ECA"/>
<circle cy="720" r="286" fill="#244BC5"/>
<circle cy="720" r="219" fill="#274FC7"/>
<path d="M672.5 139C536.9 151.8 444.667 51 415.5 -1L1279.5 2.5V720.5H1183C884.2 682.5 934.5 531 997 460C1033.5 410.167 1099.5 290.1 1071.5 208.5C1036.5 106.5 842 123 672.5 139Z" fill="#264ECA"/>
<rect x="490.5" y="330.5" width="299" height="44" rx="3.5" stroke="white"/>
<path d="M546.995 358.07C545.754 358.07 544.788 357.711 544.097 356.992C543.416 356.273 543.075 355.223 543.075 353.842V348.2H543.789V353.814C543.789 355.018 544.065 355.919 544.615 356.516C545.166 357.113 545.964 357.412 547.009 357.412C548.045 357.412 548.839 357.113 549.389 356.516C549.94 355.919 550.215 355.018 550.215 353.814V348.2H550.929V353.842C550.929 355.223 550.584 356.273 549.893 356.992C549.203 357.711 548.237 358.07 546.995 358.07ZM556.837 358.07C556.118 358.07 555.432 357.949 554.779 357.706C554.135 357.454 553.631 357.132 553.267 356.74L553.589 356.208C553.934 356.572 554.396 356.871 554.975 357.104C555.563 357.328 556.179 357.44 556.823 357.44C557.756 357.44 558.461 357.263 558.937 356.908C559.413 356.553 559.651 356.091 559.651 355.522C559.651 355.083 559.525 354.733 559.273 354.472C559.021 354.211 558.708 354.01 558.335 353.87C557.961 353.73 557.457 353.585 556.823 353.436C556.104 353.259 555.525 353.086 555.087 352.918C554.657 352.75 554.289 352.493 553.981 352.148C553.682 351.793 553.533 351.322 553.533 350.734C553.533 350.258 553.659 349.824 553.911 349.432C554.163 349.031 554.545 348.713 555.059 348.48C555.581 348.247 556.23 348.13 557.005 348.13C557.546 348.13 558.078 348.209 558.601 348.368C559.123 348.527 559.576 348.741 559.959 349.012L559.693 349.586C559.301 349.315 558.867 349.11 558.391 348.97C557.924 348.83 557.462 348.76 557.005 348.76C556.099 348.76 555.413 348.942 554.947 349.306C554.48 349.67 554.247 350.141 554.247 350.72C554.247 351.159 554.373 351.509 554.625 351.77C554.877 352.031 555.189 352.232 555.563 352.372C555.936 352.512 556.445 352.661 557.089 352.82C557.807 352.997 558.381 353.17 558.811 353.338C559.24 353.506 559.604 353.763 559.903 354.108C560.211 354.444 560.365 354.901 560.365 355.48C560.365 355.956 560.234 356.39 559.973 356.782C559.721 357.174 559.329 357.487 558.797 357.72C558.265 357.953 557.611 358.07 556.837 358.07ZM569.554 357.356V358H562.792V348.2H569.344V348.844H563.506V352.708H568.728V353.338H563.506V357.356H569.554ZM578.961 358L576.623 354.724C576.278 354.771 575.961 354.794 575.671 354.794H572.871V358H572.157V348.2H575.671C576.903 348.2 577.869 348.494 578.569 349.082C579.269 349.661 579.619 350.468 579.619 351.504C579.619 352.279 579.419 352.932 579.017 353.464C578.625 353.987 578.061 354.355 577.323 354.57L579.773 358H578.961ZM575.671 354.164C576.717 354.164 577.515 353.935 578.065 353.478C578.616 353.011 578.891 352.353 578.891 351.504C578.891 350.655 578.616 350.001 578.065 349.544C577.515 349.077 576.717 348.844 575.671 348.844H572.871V354.164H575.671ZM590.213 348.2V358H589.625L582.947 349.488V358H582.233V348.2H582.835L589.499 356.712V348.2H590.213ZM599.698 355.242H594.014L592.768 358H591.998L596.506 348.2H597.22L601.728 358H600.958L599.698 355.242ZM599.432 354.64L596.856 348.984L594.294 354.64H599.432ZM612.775 358L612.761 349.614L608.659 356.698H608.309L604.207 349.642V358H603.507V348.2H604.109L608.491 355.774L612.873 348.2H613.461L613.475 358H612.775ZM623.654 357.356V358H616.892V348.2H623.444V348.844H617.606V352.708H622.828V353.338H617.606V357.356H623.654Z" fill="white"/>
<path d="M518.667 360.5V358.833C518.667 357.949 518.315 357.101 517.69 356.476C517.065 355.851 516.217 355.5 515.333 355.5H508.667C507.783 355.5 506.935 355.851 506.31 356.476C505.685 357.101 505.333 357.949 505.333 358.833V360.5" stroke="white" stroke-linecap="round" stroke-linejoin="round"/>
<path d="M512 352.167C513.841 352.167 515.333 350.674 515.333 348.833C515.333 346.992 513.841 345.5 512 345.5C510.159 345.5 508.667 346.992 508.667 348.833C508.667 350.674 510.159 352.167 512 352.167Z" stroke="white" stroke-linecap="round" stroke-linejoin="round"/>
<rect x="490.5" y="395.5" width="299" height="44" rx="3.5" stroke="white"/>
<path d="M546.346 413.2C547.578 413.2 548.544 413.494 549.244 414.082C549.944 414.661 550.294 415.468 550.294 416.504C550.294 417.531 549.944 418.338 549.244 418.926C548.544 419.505 547.578 419.794 546.346 419.794H543.546V423H542.832V413.2H546.346ZM546.346 419.15C547.391 419.15 548.189 418.921 548.74 418.464C549.291 418.007 549.566 417.353 549.566 416.504C549.566 415.655 549.291 415.001 548.74 414.544C548.189 414.077 547.391 413.844 546.346 413.844H543.546V419.15H546.346ZM558.273 420.242H552.589L551.343 423H550.573L555.081 413.2H555.795L560.303 423H559.533L558.273 420.242ZM558.007 419.64L555.431 413.984L552.869 419.64H558.007ZM564.658 423.07C563.939 423.07 563.253 422.949 562.6 422.706C561.956 422.454 561.452 422.132 561.088 421.74L561.41 421.208C561.755 421.572 562.217 421.871 562.796 422.104C563.384 422.328 564 422.44 564.644 422.44C565.577 422.44 566.282 422.263 566.758 421.908C567.234 421.553 567.472 421.091 567.472 420.522C567.472 420.083 567.346 419.733 567.094 419.472C566.842 419.211 566.529 419.01 566.156 418.87C565.783 418.73 565.279 418.585 564.644 418.436C563.925 418.259 563.347 418.086 562.908 417.918C562.479 417.75 562.11 417.493 561.802 417.148C561.503 416.793 561.354 416.322 561.354 415.734C561.354 415.258 561.48 414.824 561.732 414.432C561.984 414.031 562.367 413.713 562.88 413.48C563.403 413.247 564.051 413.13 564.826 413.13C565.367 413.13 565.899 413.209 566.422 413.368C566.945 413.527 567.397 413.741 567.78 414.012L567.514 414.586C567.122 414.315 566.688 414.11 566.212 413.97C565.745 413.83 565.283 413.76 564.826 413.76C563.921 413.76 563.235 413.942 562.768 414.306C562.301 414.67 562.068 415.141 562.068 415.72C562.068 416.159 562.194 416.509 562.446 416.77C562.698 417.031 563.011 417.232 563.384 417.372C563.757 417.512 564.266 417.661 564.91 417.82C565.629 417.997 566.203 418.17 566.632 418.338C567.061 418.506 567.425 418.763 567.724 419.108C568.032 419.444 568.186 419.901 568.186 420.48C568.186 420.956 568.055 421.39 567.794 421.782C567.542 422.174 567.15 422.487 566.618 422.72C566.086 422.953 565.433 423.07 564.658 423.07ZM573.189 423.07C572.471 423.07 571.785 422.949 571.131 422.706C570.487 422.454 569.983 422.132 569.619 421.74L569.941 421.208C570.287 421.572 570.749 421.871 571.327 422.104C571.915 422.328 572.531 422.44 573.175 422.44C574.109 422.44 574.813 422.263 575.289 421.908C575.765 421.553 576.003 421.091 576.003 420.522C576.003 420.083 575.877 419.733 575.625 419.472C575.373 419.211 575.061 419.01 574.687 418.87C574.314 418.73 573.81 418.585 573.175 418.436C572.457 418.259 571.878 418.086 571.439 417.918C571.01 417.75 570.641 417.493 570.333 417.148C570.035 416.793 569.885 416.322 569.885 415.734C569.885 415.258 570.011 414.824 570.263 414.432C570.515 414.031 570.898 413.713 571.411 413.48C571.934 413.247 572.583 413.13 573.357 413.13C573.899 413.13 574.431 413.209 574.953 413.368C575.476 413.527 575.929 413.741 576.311 414.012L576.045 414.586C575.653 414.315 575.219 414.11 574.743 413.97C574.277 413.83 573.815 413.76 573.357 413.76C572.452 413.76 571.766 413.942 571.299 414.306C570.833 414.67 570.599 415.141 570.599 415.72C570.599 416.159 570.725 416.509 570.977 416.77C571.229 417.031 571.542 417.232 571.915 417.372C572.289 417.512 572.797 417.661 573.441 417.82C574.16 417.997 574.734 418.17 575.163 418.338C575.593 418.506 575.957 418.763 576.255 419.108C576.563 419.444 576.717 419.901 576.717 420.48C576.717 420.956 576.587 421.39 576.325 421.782C576.073 422.174 575.681 422.487 575.149 422.72C574.617 422.953 573.964 423.07 573.189 423.07ZM592.249 413.2L588.931 423H588.175L585.137 414.208L582.085 423H581.329L577.997 413.2H578.753L581.735 422.02L584.801 413.2H585.487L588.539 422.034L591.549 413.2H592.249ZM598.369 423.07C597.408 423.07 596.54 422.855 595.765 422.426C594.99 421.987 594.379 421.39 593.931 420.634C593.492 419.878 593.273 419.033 593.273 418.1C593.273 417.167 593.492 416.322 593.931 415.566C594.379 414.81 594.99 414.217 595.765 413.788C596.54 413.349 597.408 413.13 598.369 413.13C599.33 413.13 600.198 413.345 600.973 413.774C601.748 414.203 602.354 414.796 602.793 415.552C603.241 416.308 603.465 417.157 603.465 418.1C603.465 419.043 603.241 419.892 602.793 420.648C602.354 421.404 601.748 421.997 600.973 422.426C600.198 422.855 599.33 423.07 598.369 423.07ZM598.369 422.412C599.19 422.412 599.932 422.225 600.595 421.852C601.258 421.479 601.78 420.965 602.163 420.312C602.546 419.649 602.737 418.912 602.737 418.1C602.737 417.288 602.546 416.555 602.163 415.902C601.78 415.239 601.258 414.721 600.595 414.348C599.932 413.975 599.19 413.788 598.369 413.788C597.548 413.788 596.801 413.975 596.129 414.348C595.466 414.721 594.944 415.239 594.561 415.902C594.178 416.555 593.987 417.288 593.987 418.1C593.987 418.912 594.178 419.649 594.561 420.312C594.944 420.965 595.466 421.479 596.129 421.852C596.801 422.225 597.548 422.412 598.369 422.412ZM612.745 423L610.407 419.724C610.062 419.771 609.745 419.794 609.455 419.794H606.655V423H605.941V413.2H609.455C610.687 413.2 611.653 413.494 612.353 414.082C613.053 414.661 613.403 415.468 613.403 416.504C613.403 417.279 613.203 417.932 612.801 418.464C612.409 418.987 611.845 419.355 611.107 419.57L613.557 423H612.745ZM609.455 419.164C610.501 419.164 611.299 418.935 611.849 418.478C612.4 418.011 612.675 417.353 612.675 416.504C612.675 415.655 612.4 415.001 611.849 414.544C611.299 414.077 610.501 413.844 609.455 413.844H606.655V419.164H609.455ZM616.018 413.2H619.896C620.913 413.2 621.814 413.41 622.598 413.83C623.391 414.25 624.007 414.833 624.446 415.58C624.884 416.317 625.104 417.157 625.104 418.1C625.104 419.043 624.884 419.887 624.446 420.634C624.007 421.371 623.391 421.95 622.598 422.37C621.814 422.79 620.913 423 619.896 423H616.018V413.2ZM619.84 422.356C620.745 422.356 621.543 422.179 622.234 421.824C622.924 421.46 623.456 420.956 623.83 420.312C624.203 419.668 624.39 418.931 624.39 418.1C624.39 417.269 624.203 416.532 623.83 415.888C623.456 415.244 622.924 414.745 622.234 414.39C621.543 414.026 620.745 413.844 619.84 413.844H616.732V422.356H619.84Z" fill="white"/>
<path d="M517.833 417.167H506.167C505.246 417.167 504.5 417.913 504.5 418.833V424.667C504.5 425.587 505.246 426.333 506.167 426.333H517.833C518.754 426.333 519.5 425.587 519.5 424.667V418.833C519.5 417.913 518.754 417.167 517.833 417.167Z" stroke="white" stroke-linecap="round" stroke-linejoin="round"/>
<path d="M507.833 417.167V413.833C507.833 412.728 508.272 411.668 509.054 410.887C509.835 410.106 510.895 409.667 512 409.667C513.105 409.667 514.165 410.106 514.946 410.887C515.728 411.668 516.167 412.728 516.167 413.833V417.167" stroke="white" stroke-linecap="round" stroke-linejoin="round"/>
<g filter="url(#filter0_d_1_2)">
<rect x="490" y="483" width="300" height="45" rx="4" fill="white"/>
</g>
<path d="M614.871 500.8H616.951V510.24H622.807V512H614.871V500.8ZM629.478 512.16C628.337 512.16 627.308 511.915 626.39 511.424C625.473 510.923 624.753 510.235 624.23 509.36C623.708 508.475 623.446 507.488 623.446 506.4C623.446 505.312 623.708 504.331 624.23 503.456C624.753 502.571 625.473 501.883 626.39 501.392C627.308 500.891 628.337 500.64 629.478 500.64C630.62 500.64 631.649 500.891 632.566 501.392C633.484 501.883 634.204 502.565 634.726 503.44C635.249 504.315 635.51 505.301 635.51 506.4C635.51 507.499 635.249 508.485 634.726 509.36C634.204 510.235 633.484 510.923 632.566 511.424C631.649 511.915 630.62 512.16 629.478 512.16ZM629.478 510.336C630.225 510.336 630.897 510.171 631.494 509.84C632.092 509.499 632.561 509.029 632.902 508.432C633.244 507.824 633.414 507.147 633.414 506.4C633.414 505.653 633.244 504.981 632.902 504.384C632.561 503.776 632.092 503.307 631.494 502.976C630.897 502.635 630.225 502.464 629.478 502.464C628.732 502.464 628.06 502.635 627.462 502.976C626.865 503.307 626.396 503.776 626.054 504.384C625.713 504.981 625.542 505.653 625.542 506.4C625.542 507.147 625.713 507.824 626.054 508.432C626.396 509.029 626.865 509.499 627.462 509.84C628.06 510.171 628.732 510.336 629.478 510.336ZM645.363 506.272H647.331V510.736C646.755 511.195 646.083 511.547 645.315 511.792C644.547 512.037 643.758 512.16 642.947 512.16C641.806 512.16 640.776 511.915 639.859 511.424C638.942 510.923 638.222 510.235 637.699 509.36C637.176 508.485 636.915 507.499 636.915 506.4C636.915 505.301 637.176 504.315 637.699 503.44C638.222 502.565 638.942 501.883 639.859 501.392C640.787 500.891 641.827 500.64 642.979 500.64C643.918 500.64 644.771 500.795 645.539 501.104C646.307 501.413 646.952 501.867 647.475 502.464L646.163 503.744C645.31 502.891 644.28 502.464 643.075 502.464C642.286 502.464 641.582 502.629 640.963 502.96C640.355 503.291 639.875 503.755 639.523 504.352C639.182 504.949 639.011 505.632 639.011 506.4C639.011 507.147 639.182 507.819 639.523 508.416C639.875 509.013 640.355 509.483 640.963 509.824C641.582 510.165 642.28 510.336 643.059 510.336C643.934 510.336 644.702 510.144 645.363 509.76V506.272ZM650.074 500.8H652.154V512H650.074V500.8ZM665.136 500.8V512H663.424L657.248 504.416V512H655.184V500.8H656.896L663.072 508.384V500.8H665.136Z" fill="#2148C0"/>
<path d="M647.491 545.192V549.096H653.107V550.472H647.491V555H645.891V543.8H653.795V545.192H647.491ZM659.19 555.096C658.347 555.096 657.59 554.909 656.918 554.536C656.246 554.163 655.718 553.651 655.334 553C654.96 552.339 654.774 551.592 654.774 550.76C654.774 549.928 654.96 549.187 655.334 548.536C655.718 547.875 656.246 547.363 656.918 547C657.59 546.627 658.347 546.44 659.19 546.44C660.032 546.44 660.784 546.627 661.446 547C662.118 547.363 662.64 547.875 663.014 548.536C663.398 549.187 663.59 549.928 663.59 550.76C663.59 551.592 663.398 552.339 663.014 553C662.64 553.651 662.118 554.163 661.446 554.536C660.784 554.909 660.032 555.096 659.19 555.096ZM659.19 553.752C659.734 553.752 660.219 553.629 660.646 553.384C661.083 553.128 661.424 552.776 661.67 552.328C661.915 551.869 662.038 551.347 662.038 550.76C662.038 550.173 661.915 549.656 661.67 549.208C661.424 548.749 661.083 548.397 660.646 548.152C660.219 547.907 659.734 547.784 659.19 547.784C658.646 547.784 658.155 547.907 657.718 548.152C657.291 548.397 656.95 548.749 656.694 549.208C656.448 549.656 656.326 550.173 656.326 550.76C656.326 551.347 656.448 551.869 656.694 552.328C656.95 552.776 657.291 553.128 657.718 553.384C658.155 553.629 658.646 553.752 659.19 553.752ZM667.186 547.944C667.452 547.453 667.847 547.08 668.37 546.824C668.892 546.568 669.527 546.44 670.274 546.44V547.928C670.188 547.917 670.071 547.912 669.922 547.912C669.09 547.912 668.434 548.163 667.954 548.664C667.484 549.155 667.25 549.859 667.25 550.776V555H665.714V546.52H667.186V547.944ZM680.201 546.52V553.848C680.201 555.331 679.833 556.424 679.097 557.128C678.361 557.843 677.262 558.2 675.801 558.2C675.001 558.2 674.238 558.088 673.513 557.864C672.787 557.651 672.201 557.341 671.753 556.936L672.489 555.752C672.883 556.093 673.369 556.36 673.945 556.552C674.531 556.755 675.134 556.856 675.753 556.856C676.745 556.856 677.475 556.621 677.945 556.152C678.425 555.683 678.665 554.968 678.665 554.008V553.336C678.302 553.773 677.854 554.104 677.321 554.328C676.798 554.541 676.227 554.648 675.609 554.648C674.798 554.648 674.062 554.477 673.401 554.136C672.75 553.784 672.238 553.299 671.865 552.68C671.491 552.051 671.305 551.336 671.305 550.536C671.305 549.736 671.491 549.027 671.865 548.408C672.238 547.779 672.75 547.293 673.401 546.952C674.062 546.611 674.798 546.44 675.609 546.44C676.249 546.44 676.841 546.557 677.385 546.792C677.939 547.027 678.393 547.373 678.745 547.832V546.52H680.201ZM675.785 553.304C676.339 553.304 676.835 553.187 677.273 552.952C677.721 552.717 678.067 552.392 678.313 551.976C678.569 551.549 678.697 551.069 678.697 550.536C678.697 549.715 678.425 549.053 677.881 548.552C677.337 548.04 676.638 547.784 675.785 547.784C674.921 547.784 674.217 548.04 673.673 548.552C673.129 549.053 672.857 549.715 672.857 550.536C672.857 551.069 672.979 551.549 673.225 551.976C673.481 552.392 673.827 552.717 674.265 552.952C674.713 553.187 675.219 553.304 675.785 553.304ZM686.768 555.096C685.925 555.096 685.168 554.909 684.496 554.536C683.824 554.163 683.296 553.651 682.912 553C682.538 552.339 682.352 551.592 682.352 550.76C682.352 549.928 682.538 549.187 682.912 548.536C683.296 547.875 683.824 547.363 684.496 547C685.168 546.627 685.925 546.44 686.768 546.44C687.61 546.44 688.362 546.627 689.024 547C689.696 547.363 690.218 547.875 690.592 548.536C690.976 549.187 691.168 549.928 691.168 550.76C691.168 551.592 690.976 552.339 690.592 553C690.218 553.651 689.696 554.163 689.024 554.536C688.362 554.909 687.61 555.096 686.768 555.096ZM686.768 553.752C687.312 553.752 687.797 553.629 688.224 553.384C688.661 553.128 689.002 552.776 689.248 552.328C689.493 551.869 689.616 551.347 689.616 550.76C689.616 550.173 689.493 549.656 689.248 549.208C689.002 548.749 688.661 548.397 688.224 548.152C687.797 547.907 687.312 547.784 686.768 547.784C686.224 547.784 685.733 547.907 685.296 548.152C684.869 548.397 684.528 548.749 684.272 549.208C684.026 549.656 683.904 550.173 683.904 550.76C683.904 551.347 684.026 551.869 684.272 552.328C684.528 552.776 684.869 553.128 685.296 553.384C685.733 553.629 686.224 553.752 686.768 553.752ZM698.06 554.504C697.836 554.696 697.559 554.845 697.228 554.952C696.897 555.048 696.556 555.096 696.204 555.096C695.351 555.096 694.689 554.867 694.22 554.408C693.751 553.949 693.516 553.293 693.516 552.44V547.784H692.076V546.52H693.516V544.664H695.052V546.52H697.484V547.784H695.052V552.376C695.052 552.835 695.164 553.187 695.388 553.432C695.623 553.677 695.953 553.8 696.38 553.8C696.849 553.8 697.249 553.667 697.58 553.4L698.06 554.504ZM708.71 546.44C709.531 546.44 710.267 546.621 710.918 546.984C711.568 547.347 712.075 547.853 712.438 548.504C712.811 549.155 712.998 549.907 712.998 550.76C712.998 551.613 712.811 552.371 712.438 553.032C712.075 553.683 711.568 554.189 710.918 554.552C710.267 554.915 709.531 555.096 708.71 555.096C708.102 555.096 707.542 554.979 707.03 554.744C706.528 554.509 706.102 554.168 705.75 553.72V558.104H704.214V546.52H705.686V547.864C706.027 547.395 706.459 547.043 706.982 546.808C707.504 546.563 708.08 546.44 708.71 546.44ZM708.582 553.752C709.126 553.752 709.611 553.629 710.038 553.384C710.475 553.128 710.816 552.776 711.062 552.328C711.318 551.869 711.446 551.347 711.446 550.76C711.446 550.173 711.318 549.656 711.062 549.208C710.816 548.749 710.475 548.397 710.038 548.152C709.611 547.907 709.126 547.784 708.582 547.784C708.048 547.784 707.563 547.912 707.126 548.168C706.699 548.413 706.358 548.76 706.102 549.208C705.856 549.656 705.734 550.173 705.734 550.76C705.734 551.347 705.856 551.869 706.102 552.328C706.347 552.776 706.688 553.128 707.126 553.384C707.563 553.629 708.048 553.752 708.582 553.752ZM718.13 546.44C719.303 546.44 720.199 546.728 720.818 547.304C721.447 547.88 721.762 548.739 721.762 549.88V555H720.306V553.88C720.05 554.275 719.682 554.579 719.202 554.792C718.733 554.995 718.173 555.096 717.522 555.096C716.573 555.096 715.81 554.867 715.234 554.408C714.669 553.949 714.386 553.347 714.386 552.6C714.386 551.853 714.658 551.256 715.202 550.808C715.746 550.349 716.61 550.12 717.794 550.12H720.226V549.816C720.226 549.155 720.034 548.648 719.65 548.296C719.266 547.944 718.701 547.768 717.954 547.768C717.453 547.768 716.962 547.853 716.482 548.024C716.002 548.184 715.597 548.403 715.266 548.68L714.626 547.528C715.063 547.176 715.586 546.909 716.194 546.728C716.802 546.536 717.447 546.44 718.13 546.44ZM717.778 553.912C718.365 553.912 718.871 553.784 719.298 553.528C719.725 553.261 720.034 552.888 720.226 552.408V551.224H717.858C716.557 551.224 715.906 551.661 715.906 552.536C715.906 552.963 716.071 553.299 716.402 553.544C716.733 553.789 717.191 553.912 717.778 553.912ZM727.036 555.096C726.343 555.096 725.676 555.005 725.036 554.824C724.396 554.632 723.895 554.392 723.532 554.104L724.172 552.888C724.546 553.155 724.999 553.368 725.532 553.528C726.066 553.688 726.604 553.768 727.148 553.768C728.492 553.768 729.164 553.384 729.164 552.616C729.164 552.36 729.074 552.157 728.892 552.008C728.711 551.859 728.482 551.752 728.204 551.688C727.938 551.613 727.554 551.533 727.052 551.448C726.37 551.341 725.81 551.219 725.372 551.08C724.946 550.941 724.578 550.707 724.268 550.376C723.959 550.045 723.804 549.581 723.804 548.984C723.804 548.216 724.124 547.603 724.764 547.144C725.404 546.675 726.263 546.44 727.34 546.44C727.906 546.44 728.471 546.509 729.036 546.648C729.602 546.787 730.066 546.973 730.428 547.208L729.772 548.424C729.079 547.976 728.263 547.752 727.324 547.752C726.674 547.752 726.178 547.859 725.836 548.072C725.495 548.285 725.324 548.568 725.324 548.92C725.324 549.197 725.42 549.416 725.612 549.576C725.804 549.736 726.039 549.853 726.316 549.928C726.604 550.003 727.004 550.088 727.516 550.184C728.199 550.301 728.748 550.429 729.164 550.568C729.591 550.696 729.954 550.92 730.252 551.24C730.551 551.56 730.7 552.008 730.7 552.584C730.7 553.352 730.37 553.965 729.708 554.424C729.058 554.872 728.167 555.096 727.036 555.096ZM735.052 555.096C734.359 555.096 733.692 555.005 733.052 554.824C732.412 554.632 731.911 554.392 731.548 554.104L732.188 552.888C732.561 553.155 733.015 553.368 733.548 553.528C734.081 553.688 734.62 553.768 735.164 553.768C736.508 553.768 737.18 553.384 737.18 552.616C737.18 552.36 737.089 552.157 736.908 552.008C736.727 551.859 736.497 551.752 736.22 551.688C735.953 551.613 735.569 551.533 735.068 551.448C734.385 551.341 733.825 551.219 733.388 551.08C732.961 550.941 732.593 550.707 732.284 550.376C731.975 550.045 731.82 549.581 731.82 548.984C731.82 548.216 732.14 547.603 732.78 547.144C733.42 546.675 734.279 546.44 735.356 546.44C735.921 546.44 736.487 546.509 737.052 546.648C737.617 546.787 738.081 546.973 738.444 547.208L737.788 548.424C737.095 547.976 736.279 547.752 735.34 547.752C734.689 547.752 734.193 547.859 733.852 548.072C733.511 548.285 733.34 548.568 733.34 548.92C733.34 549.197 733.436 549.416 733.628 549.576C733.82 549.736 734.055 549.853 734.332 549.928C734.62 550.003 735.02 550.088 735.532 550.184C736.215 550.301 736.764 550.429 737.18 550.568C737.607 550.696 737.969 550.92 738.268 551.24C738.567 551.56 738.716 552.008 738.716 552.584C738.716 553.352 738.385 553.965 737.724 554.424C737.073 554.872 736.183 555.096 735.052 555.096ZM753.311 546.52L750.143 555H748.671L746.223 548.568L743.743 555H742.271L739.119 546.52H740.575L743.039 553.272L745.599 546.52H746.895L749.407 553.304L751.935 546.52H753.311ZM758.268 555.096C757.425 555.096 756.668 554.909 755.996 554.536C755.324 554.163 754.796 553.651 754.412 553C754.038 552.339 753.852 551.592 753.852 550.76C753.852 549.928 754.038 549.187 754.412 548.536C754.796 547.875 755.324 547.363 755.996 547C756.668 546.627 757.425 546.44 758.268 546.44C759.11 546.44 759.862 546.627 760.524 547C761.196 547.363 761.718 547.875 762.092 548.536C762.476 549.187 762.668 549.928 762.668 550.76C762.668 551.592 762.476 552.339 762.092 553C761.718 553.651 761.196 554.163 760.524 554.536C759.862 554.909 759.11 555.096 758.268 555.096ZM758.268 553.752C758.812 553.752 759.297 553.629 759.724 553.384C760.161 553.128 760.502 552.776 760.748 552.328C760.993 551.869 761.116 551.347 761.116 550.76C761.116 550.173 760.993 549.656 760.748 549.208C760.502 548.749 760.161 548.397 759.724 548.152C759.297 547.907 758.812 547.784 758.268 547.784C757.724 547.784 757.233 547.907 756.796 548.152C756.369 548.397 756.028 548.749 755.772 549.208C755.526 549.656 755.404 550.173 755.404 550.76C755.404 551.347 755.526 551.869 755.772 552.328C756.028 552.776 756.369 553.128 756.796 553.384C757.233 553.629 757.724 553.752 758.268 553.752ZM766.264 547.944C766.531 547.453 766.925 547.08 767.448 546.824C767.971 546.568 768.605 546.44 769.352 546.44V547.928C769.267 547.917 769.149 547.912 769 547.912C768.168 547.912 767.512 548.163 767.032 548.664C766.563 549.155 766.328 549.859 766.328 550.776V555H764.792V546.52H766.264V547.944ZM779.167 543.128V555H777.695V553.656C777.354 554.125 776.922 554.483 776.399 554.728C775.876 554.973 775.3 555.096 774.671 555.096C773.85 555.096 773.114 554.915 772.463 554.552C771.812 554.189 771.3 553.683 770.927 553.032C770.564 552.371 770.383 551.613 770.383 550.76C770.383 549.907 770.564 549.155 770.927 548.504C771.3 547.853 771.812 547.347 772.463 546.984C773.114 546.621 773.85 546.44 774.671 546.44C775.279 546.44 775.839 546.557 776.351 546.792C776.863 547.016 777.29 547.352 777.631 547.8V543.128H779.167ZM774.799 553.752C775.332 553.752 775.818 553.629 776.255 553.384C776.692 553.128 777.034 552.776 777.279 552.328C777.524 551.869 777.647 551.347 777.647 550.76C777.647 550.173 777.524 549.656 777.279 549.208C777.034 548.749 776.692 548.397 776.255 548.152C775.818 547.907 775.332 547.784 774.799 547.784C774.255 547.784 773.764 547.907 773.327 548.152C772.9 548.397 772.559 548.749 772.303 549.208C772.058 549.656 771.935 550.173 771.935 550.76C771.935 551.347 772.058 551.869 772.303 552.328C772.559 552.776 772.9 553.128 773.327 553.384C773.764 553.629 774.255 553.752 774.799 553.752ZM784.265 551.464C784.265 551.037 784.335 550.664 784.473 550.344C784.623 550.013 784.799 549.736 785.001 549.512C785.215 549.288 785.492 549.021 785.833 548.712C786.26 548.339 786.575 548.019 786.777 547.752C786.98 547.475 787.081 547.144 787.081 546.76C787.081 546.237 786.879 545.821 786.473 545.512C786.068 545.192 785.508 545.032 784.793 545.032C783.545 545.032 782.591 545.453 781.929 546.296L780.761 545.464C781.209 544.888 781.78 544.445 782.473 544.136C783.177 543.827 783.988 543.672 784.905 543.672C786.068 543.672 786.991 543.928 787.673 544.44C788.356 544.941 788.697 545.635 788.697 546.52C788.697 546.957 788.623 547.347 788.473 547.688C788.335 548.019 788.164 548.296 787.961 548.52C787.759 548.744 787.487 549.011 787.145 549.32C786.708 549.715 786.383 550.061 786.169 550.36C785.967 550.659 785.865 551.027 785.865 551.464H784.265ZM785.081 555.096C784.783 555.096 784.532 555 784.329 554.808C784.137 554.605 784.041 554.36 784.041 554.072C784.041 553.784 784.137 553.544 784.329 553.352C784.532 553.149 784.783 553.048 785.081 553.048C785.38 553.048 785.625 553.149 785.817 553.352C786.009 553.544 786.105 553.784 786.105 554.072C786.105 554.36 786.004 554.605 785.801 554.808C785.609 555 785.369 555.096 785.081 555.096Z" fill="white"/>
<path d="M580 161H593.652C595.831 161 597.753 162.427 598.387 164.513L619.76 234.901C620.393 236.987 622.316 238.414 624.494 238.414H672.649C674.913 238.414 676.889 236.875 677.446 234.678L686.068 200.656C686.624 198.459 688.6 196.92 690.865 196.92H699.386" stroke="white" stroke-width="3.75648" stroke-linecap="round"/>
<path d="M650.593 180.743C649.869 180.017 648.694 180.017 647.969 180.743L636.159 192.567C635.434 193.292 635.434 194.469 636.159 195.194C636.884 195.92 638.059 195.92 638.783 195.194L649.281 184.684L659.779 195.194C660.504 195.92 661.678 195.92 662.403 195.194C663.128 194.469 663.128 193.292 662.403 192.567L650.593 180.743ZM651.137 216.738V182.057H647.425V216.738H651.137Z" fill="white"/>
<path d="M636.291 258.851C639.366 258.851 641.858 256.356 641.858 253.277C641.858 250.199 639.366 247.704 636.291 247.704C633.216 247.704 630.724 250.199 630.724 253.277C630.724 256.356 633.216 258.851 636.291 258.851Z" stroke="white" stroke-width="3.00518"/>
<path d="M663.508 258.851C666.583 258.851 669.076 256.356 669.076 253.277C669.076 250.199 666.583 247.704 663.508 247.704C660.434 247.704 657.941 250.199 657.941 253.277C657.941 256.356 660.434 258.851 663.508 258.851Z" stroke="white" stroke-width="3.00518"/>
</g>
<defs>
<filter id="filter0_d_1_2" x="486" y="483" width="308" height="53" filterUnits="userSpaceOnUse" color-interpolation-filters="sRGB">
<feFlood flood-opacity="0" result="BackgroundImageFix"/>
<feColorMatrix in="SourceAlpha" type="matrix" values="0 0 0 0 0 0 0 0 0 0 0 0 0 0 0 0 0 0 127 0" result="hardAlpha"/>
<feOffset dy="4"/>
<feGaussianBlur stdDeviation="2"/>
<feColorMatrix type="matrix" values="0 0 0 0 0 0 0 0 0 0 0 0 0 0 0 0 0 0 0.3 0"/>
<feBlend mode="normal" in2="BackgroundImageFix" result="effect1_dropShadow_1_2"/>
<feBlend mode="normal" in="SourceGraphic" in2="effect1_dropShadow_1_2" result="shape"/>
</filter>
<clipPath id="clip0_1_2">
<rect width="1280" height="720" fill="white"/>
</clipPath>
</defs>
</svg>
